<svg viewBox="0 0 2156.983 146.997" xmlns="http://www.w3.org/2000/svg"><g stroke-linecap="round" fill-rule="evenodd" font-size="12" stroke="#dD1117" stroke-width=".945" fill="#fff" style="stroke:#0d1117;stroke-width:.25mm;fill:#fff"><path d="M120.63 7.617h19.336l-17.578 98.438q-.586 2.929-2.637 5.053t-4.98 2.71a10.667 10.667 0 0 1-1.798.156 9.561 9.561 0 0 1-3.879-.815q-2.673-1.172-4.211-3.662L70.02 52.222l-34.937 57.275a8.668 8.668 0 0 1-3.406 3.296q-2.16 1.172-4.651 1.172-3.442 0-6.079-2.197-2.636-2.198-3.222-5.713L0 7.617h19.336l12.598 69.361 30.029-47.901a8.668 8.668 0 0 1 3.406-3.296q2.16-1.172 4.651-1.172 2.49 0 4.614 1.172a9.86 9.86 0 0 1 3.515 3.296l29.883 47.901L120.63 7.617ZM211.011 85.913H176.66V67.822h34.351a10.149 10.149 0 0 0 2.461-.281 6.85 6.85 0 0 0 3.545-2.099 8.314 8.314 0 0 0 2.086-4.982 10.936 10.936 0 0 0 .038-.914q0-3.735-2.381-5.859a8.305 8.305 0 0 0-5.592-2.123 10.579 10.579 0 0 0-.157-.001H176.66a10.149 10.149 0 0 0-2.461.281 6.85 6.85 0 0 0-3.545 2.099 8.314 8.314 0 0 0-2.086 4.982 10.936 10.936 0 0 0-.038.914v26.587a9.771 9.771 0 0 0 .301 2.495 6.83 6.83 0 0 0 2.08 3.437 8.314 8.314 0 0 0 4.982 2.087 10.936 10.936 0 0 0 .914.037h34.204v18.164H176.66a25.927 25.927 0 0 1-4.579-.428 34.67 34.67 0 0 1-3.954-.963 25.499 25.499 0 0 1-8.496-4.505 23.784 23.784 0 0 1-4.959-5.44 29.406 29.406 0 0 1-1.596-2.689q-2.482-4.724-2.627-11.361a38.061 38.061 0 0 1-.01-.834V59.692a25.927 25.927 0 0 1 .429-4.579 34.67 34.67 0 0 1 .963-3.953 25.499 25.499 0 0 1 4.504-8.496 23.784 23.784 0 0 1 5.441-4.959 29.406 29.406 0 0 1 2.689-1.597q4.723-2.482 11.361-2.627a38.061 38.061 0 0 1 .834-.009h34.351a25.927 25.927 0 0 1 4.579.428 34.67 34.67 0 0 1 3.953.963 25.499 25.499 0 0 1 8.497 4.505 23.784 23.784 0 0 1 4.958 5.441 29.406 29.406 0 0 1 1.597 2.689q2.482 4.723 2.627 11.361a38.061 38.061 0 0 1 .009.833 25.927 25.927 0 0 1-.428 4.58 34.67 34.67 0 0 1-.963 3.953 25.499 25.499 0 0 1-4.505 8.496 23.784 23.784 0 0 1-5.44 4.959 29.406 29.406 0 0 1-2.689 1.596q-4.724 2.483-11.362 2.628a38.061 38.061 0 0 1-.833.009ZM284.839 93.604v19.042h-8.496q-4.102 0-8.753-1.391a25.787 25.787 0 0 1-8.426-4.38 29.247 29.247 0 0 1-.253-.198q-4.028-3.186-6.665-8.276-2.389-4.613-2.613-11.121a39.732 39.732 0 0 1-.024-1.367V0h19.043v85.913a9.117 9.117 0 0 0 .309 2.436 6.774 6.774 0 0 0 1.889 3.167 7.526 7.526 0 0 0 4.872 2.068 9.934 9.934 0 0 0 .621.02h8.496ZM373.755 93.604v19.042h-51.636a26.238 26.238 0 0 1-4.341-.381 36.21 36.21 0 0 1-4.301-1.01 25.417 25.417 0 0 1-8.68-4.578 24.385 24.385 0 0 1-5.057-5.563 29.876 29.876 0 0 1-1.608-2.713 22.056 22.056 0 0 1-2.005-5.667q-.543-2.537-.645-5.454a39.188 39.188 0 0 1-.023-1.367V60.132a26.499 26.499 0 0 1 .281-3.774 32.022 32.022 0 0 1 .342-1.939 29.265 29.265 0 0 1 1.859-5.784 32.28 32.28 0 0 1 .081-.185 27.781 27.781 0 0 1 3.406-5.677 22.389 22.389 0 0 1 5.031-4.744 24.853 24.853 0 0 1 .023-.016q2.966-2.051 6.848-3.296a25.439 25.439 0 0 1 4.692-1.007 33.8 33.8 0 0 1 4.097-.238h51.636v19.043h-51.636a11.734 11.734 0 0 0-2.159.186q-2.183.409-3.517 1.718a5.88 5.88 0 0 0-1.417 2.303q-.524 1.502-.524 3.556v25.635q0 2.769 1.087 4.572a5.95 5.95 0 0 0 .89 1.141q1.978 1.978 5.787 1.978h51.489ZM475.049 60.132v25.781a33.368 33.368 0 0 1-.311 4.66 25.501 25.501 0 0 1-.934 4.166 27.929 27.929 0 0 1-1.763 4.317 22.981 22.981 0 0 1-1.533 2.568 22.422 22.422 0 0 1-4.676 4.988 21.303 21.303 0 0 1-.085.065 27.781 27.781 0 0 1-5.676 3.406q-2.967 1.318-6.006 1.941a31.197 31.197 0 0 1-3.493.52 25.472 25.472 0 0 1-2.257.102h-34.35a26.238 26.238 0 0 1-4.341-.381 36.21 36.21 0 0 1-4.302-1.01 25.417 25.417 0 0 1-8.679-4.578 24.385 24.385 0 0 1-5.057-5.563 29.876 29.876 0 0 1-1.608-2.713 22.056 22.056 0 0 1-2.005-5.667q-.543-2.537-.645-5.454a39.188 39.188 0 0 1-.023-1.367V60.132a33.466 33.466 0 0 1 .441-5.582q.645-3.81 2.232-6.833a27.839 27.839 0 0 1 3.532-5.249 23.381 23.381 0 0 1 3.133-3.027 25.417 25.417 0 0 1 8.679-4.578q4.649-1.38 8.577-1.391a22.507 22.507 0 0 1 .066 0h34.35q7.325 0 12.452 2.636a27.108 27.108 0 0 1 5.126 3.382 22.478 22.478 0 0 1 3.15 3.247q3.149 3.992 4.578 8.679a35.003 35.003 0 0 1 1.06 4.455 25.994 25.994 0 0 1 .368 4.261Zm-19.043 25.781V60.278a12.567 12.567 0 0 0-.174-2.167q-.207-1.177-.658-2.1a5.597 5.597 0 0 0-1.146-1.592 6.365 6.365 0 0 0-2.597-1.486q-.981-.301-2.161-.385a13.357 13.357 0 0 0-.955-.033h-34.204a11.966 11.966 0 0 0-2.201.189q-1.252.235-2.23.76a5.918 5.918 0 0 0-1.355.992 6.194 6.194 0 0 0-1.571 2.659q-.304.992-.381 2.19a13.006 13.006 0 0 0-.025.827v25.781q0 2.769 1.086 4.572a5.95 5.95 0 0 0 .891 1.141q1.978 1.978 5.786 1.978h34.204q3.882 0 5.787-1.978a6.365 6.365 0 0 0 1.485-2.597q.301-.981.386-2.162a13.357 13.357 0 0 0 .033-.954ZM561.914 60.132v52.514h-19.043V60.132q0-3.736-1.977-5.676-1.654-1.623-4.637-1.889a13.766 13.766 0 0 0-1.223-.052h-24.756v60.131h-19.043V42.92a9.416 9.416 0 0 1 .592-3.347 9.007 9.007 0 0 1 .141-.352 9.127 9.127 0 0 1 2.051-3.003 9.74 9.74 0 0 1 3.076-2.014q1.758-.732 3.735-.732h34.351a25.793 25.793 0 0 1 4.635.44 34.125 34.125 0 0 1 3.861.951 27.61 27.61 0 0 1 7.545 3.681 31.822 31.822 0 0 1 1.097.787v-5.859h25.782a26.499 26.499 0 0 1 3.773.281 32.022 32.022 0 0 1 1.939.341 29.265 29.265 0 0 1 5.784 1.859 32.28 32.28 0 0 1 .186.082 27.781 27.781 0 0 1 5.676 3.406 22.389 22.389 0 0 1 4.745 5.03 24.853 24.853 0 0 1 .016.024q2.051 2.966 3.296 6.848a25.439 25.439 0 0 1 1.006 4.691 33.8 33.8 0 0 1 .239 4.098v52.514h-19.043V60.132q0-2.592-.899-4.32a5.813 5.813 0 0 0-.969-1.356q-1.506-1.566-4.324-1.869a13.359 13.359 0 0 0-1.425-.072h-17.139q.952 3.515.952 7.617ZM681.226 85.913h-34.351V67.822h34.351a10.149 10.149 0 0 0 2.461-.281 6.85 6.85 0 0 0 3.544-2.099 8.314 8.314 0 0 0 2.087-4.982 10.936 10.936 0 0 0 .037-.914q0-3.735-2.38-5.859a8.305 8.305 0 0 0-5.592-2.123 10.579 10.579 0 0 0-.157-.001h-34.351a10.149 10.149 0 0 0-2.461.281 6.85 6.85 0 0 0-3.545 2.099 8.314 8.314 0 0 0-2.086 4.982 10.936 10.936 0 0 0-.038.914v26.587a9.771 9.771 0 0 0 .301 2.495 6.83 6.83 0 0 0 2.079 3.437 8.314 8.314 0 0 0 4.983 2.087 10.936 10.936 0 0 0 .913.037h34.205v18.164h-34.351a25.927 25.927 0 0 1-4.579-.428 34.67 34.67 0 0 1-3.954-.963 25.499 25.499 0 0 1-8.496-4.505 23.784 23.784 0 0 1-4.959-5.44 29.406 29.406 0 0 1-1.596-2.689q-2.482-4.724-2.628-11.361a38.061 38.061 0 0 1-.009-.834V59.692a25.927 25.927 0 0 1 .428-4.579 34.67 34.67 0 0 1 .964-3.953 25.499 25.499 0 0 1 4.504-8.496 23.784 23.784 0 0 1 5.441-4.959 29.406 29.406 0 0 1 2.689-1.597q4.723-2.482 11.361-2.627a38.061 38.061 0 0 1 .834-.009h34.351a25.927 25.927 0 0 1 4.579.428 34.67 34.67 0 0 1 3.953.963 25.499 25.499 0 0 1 8.496 4.505 23.784 23.784 0 0 1 4.959 5.441 29.406 29.406 0 0 1 1.597 2.689q2.482 4.723 2.627 11.361a38.061 38.061 0 0 1 .009.833 25.927 25.927 0 0 1-.428 4.58 34.67 34.67 0 0 1-.963 3.953 25.499 25.499 0 0 1-4.505 8.496 23.784 23.784 0 0 1-5.441 4.959 29.406 29.406 0 0 1-2.689 1.596q-4.723 2.483-11.361 2.628a38.061 38.061 0 0 1-.833.009ZM839.868 33.472v19.043h-33.252v60.131h-19.262V52.515h-24.756V33.472h24.756V7.617h19.262v25.855h33.252ZM938.232 60.132v25.781a33.368 33.368 0 0 1-.311 4.66 25.501 25.501 0 0 1-.934 4.166 27.929 27.929 0 0 1-1.762 4.317 22.981 22.981 0 0 1-1.534 2.568 22.422 22.422 0 0 1-4.676 4.988 21.303 21.303 0 0 1-.084.065 27.781 27.781 0 0 1-5.677 3.406q-2.966 1.318-6.005 1.941a31.197 31.197 0 0 1-3.494.52 25.472 25.472 0 0 1-2.256.102h-34.351a26.238 26.238 0 0 1-4.341-.381 36.21 36.21 0 0 1-4.301-1.01 25.417 25.417 0 0 1-8.679-4.578 24.385 24.385 0 0 1-5.057-5.563 29.876 29.876 0 0 1-1.608-2.713 22.056 22.056 0 0 1-2.005-5.667q-.543-2.537-.645-5.454a39.188 39.188 0 0 1-.024-1.367V60.132a33.466 33.466 0 0 1 .441-5.582q.645-3.81 2.233-6.833a27.839 27.839 0 0 1 3.531-5.249 23.381 23.381 0 0 1 3.134-3.027 25.417 25.417 0 0 1 8.679-4.578q4.648-1.38 8.577-1.391a22.507 22.507 0 0 1 .065 0h34.351q7.324 0 12.451 2.636a27.108 27.108 0 0 1 5.127 3.382 22.478 22.478 0 0 1 3.15 3.247q3.149 3.992 4.577 8.679a35.003 35.003 0 0 1 1.06 4.455 25.994 25.994 0 0 1 .368 4.261Zm-19.043 25.781V60.278a12.567 12.567 0 0 0-.174-2.167q-.206-1.177-.657-2.1a5.597 5.597 0 0 0-1.146-1.592 6.365 6.365 0 0 0-2.597-1.486q-.981-.301-2.162-.385a13.357 13.357 0 0 0-.954-.033h-34.204a11.966 11.966 0 0 0-2.202.189q-1.251.235-2.229.76a5.918 5.918 0 0 0-1.355.992 6.194 6.194 0 0 0-1.572 2.659q-.304.992-.38 2.19a13.006 13.006 0 0 0-.026.827v25.781q0 2.769 1.087 4.572a5.95 5.95 0 0 0 .891 1.141q1.977 1.978 5.786 1.978h34.204q3.882 0 5.786-1.978a6.365 6.365 0 0 0 1.486-2.597q.301-.981.385-2.162a13.357 13.357 0 0 0 .033-.954ZM1073.877 60.132v52.514h-19.043V60.132q0-3.736-1.978-5.676-1.653-1.623-4.636-1.889a13.766 13.766 0 0 0-1.223-.052h-24.756v60.131h-19.043V42.92a9.416 9.416 0 0 1 .591-3.347 9.007 9.007 0 0 1 .142-.352 9.127 9.127 0 0 1 2.05-3.003 9.74 9.74 0 0 1 3.077-2.014q1.757-.732 3.735-.732h34.351a25.793 25.793 0 0 1 4.634.44 34.125 34.125 0 0 1 3.862.951 27.61 27.61 0 0 1 7.545 3.681 31.822 31.822 0 0 1 1.097.787v-5.859h25.781a26.499 26.499 0 0 1 3.774.281 32.022 32.022 0 0 1 1.939.341 29.265 29.265 0 0 1 5.784 1.859 32.28 32.28 0 0 1 .186.082 27.781 27.781 0 0 1 5.676 3.406 22.389 22.389 0 0 1 4.745 5.03 24.853 24.853 0 0 1 .016.024q2.05 2.966 3.296 6.848a25.439 25.439 0 0 1 1.006 4.691 33.8 33.8 0 0 1 .239 4.098v52.514h-19.043V60.132q0-2.592-.899-4.32a5.813 5.813 0 0 0-.969-1.356q-1.507-1.566-4.324-1.869a13.359 13.359 0 0 0-1.426-.072h-17.138q.952 3.515.952 7.617ZM1221.533 33.472v86.792a33.368 33.368 0 0 1-.311 4.66 25.501 25.501 0 0 1-.934 4.165 27.929 27.929 0 0 1-1.763 4.318 22.981 22.981 0 0 1-1.533 2.567 22.422 22.422 0 0 1-4.676 4.988 21.303 21.303 0 0 1-.085.066 27.781 27.781 0 0 1-5.676 3.406q-2.966 1.318-5.969 1.941a30.223 30.223 0 0 1-3.639.535 25.131 25.131 0 0 1-2.074.087h-34.351v-19.043h34.351a11.669 11.669 0 0 0 2.169-.188q1.218-.231 2.164-.744a5.633 5.633 0 0 0 1.38-1.045 6.365 6.365 0 0 0 1.486-2.598q.301-.981.385-2.161a13.357 13.357 0 0 0 .033-.954V33.472h19.043Zm-26.66 60.132v19.042h-34.351q-4.101 0-8.752-1.391a25.787 25.787 0 0 1-8.427-4.38 29.247 29.247 0 0 1-.252-.198q-4.028-3.186-6.665-8.276-2.39-4.613-2.614-11.121a39.732 39.732 0 0 1-.023-1.367V33.472h19.043v52.441q0 2.769 1.087 4.572a5.95 5.95 0 0 0 .891 1.141q1.977 1.978 5.859 1.978h34.204ZM1357.764 33.472v19.043h-42.847a12.367 12.367 0 0 0-2.237.189q-2.262.416-3.622 1.752a6.194 6.194 0 0 0-1.572 2.659q-.304.992-.38 2.19a13.006 13.006 0 0 0-.026.827v52.514h-19.043V60.132a33.171 33.171 0 0 1 .311-4.651 25.024 25.024 0 0 1 .934-4.138 26.933 26.933 0 0 1 1.886-4.495 22.692 22.692 0 0 1 1.447-2.353 23.281 23.281 0 0 1 4.294-4.655 21.792 21.792 0 0 1 .503-.399 27.781 27.781 0 0 1 5.676-3.406q2.967-1.318 6.006-1.941a31.673 31.673 0 0 1 3.248-.499 24.795 24.795 0 0 1 2.429-.123h42.993ZM1428.955 85.913h-34.351V67.822h34.351a10.149 10.149 0 0 0 2.461-.281 6.85 6.85 0 0 0 3.545-2.099 8.314 8.314 0 0 0 2.086-4.982 10.936 10.936 0 0 0 .038-.914q0-3.735-2.38-5.859a8.305 8.305 0 0 0-5.593-2.123 10.579 10.579 0 0 0-.157-.001h-34.351a10.149 10.149 0 0 0-2.461.281 6.85 6.85 0 0 0-3.544 2.099 8.314 8.314 0 0 0-2.087 4.982 10.936 10.936 0 0 0-.037.914v26.587a9.771 9.771 0 0 0 .3 2.495 6.83 6.83 0 0 0 2.08 3.437 8.314 8.314 0 0 0 4.982 2.087 10.936 10.936 0 0 0 .914.037h34.204v18.164h-34.351a25.927 25.927 0 0 1-4.579-.428 34.67 34.67 0 0 1-3.953-.963 25.499 25.499 0 0 1-8.496-4.505 23.784 23.784 0 0 1-4.959-5.44 29.406 29.406 0 0 1-1.596-2.689q-2.483-4.724-2.628-11.361a38.061 38.061 0 0 1-.009-.834V59.692a25.927 25.927 0 0 1 .428-4.579 34.67 34.67 0 0 1 .963-3.953 25.499 25.499 0 0 1 4.505-8.496 23.784 23.784 0 0 1 5.441-4.959 29.406 29.406 0 0 1 2.689-1.597q4.723-2.482 11.361-2.627a38.061 38.061 0 0 1 .833-.009h34.351a25.927 25.927 0 0 1 4.579.428 34.67 34.67 0 0 1 3.954.963 25.499 25.499 0 0 1 8.496 4.505 23.784 23.784 0 0 1 4.959 5.441 29.406 29.406 0 0 1 1.596 2.689q2.482 4.723 2.628 11.361a38.061 38.061 0 0 1 .009.833 25.927 25.927 0 0 1-.428 4.58 34.67 34.67 0 0 1-.964 3.953 25.499 25.499 0 0 1-4.504 8.496 23.784 23.784 0 0 1-5.441 4.959 29.406 29.406 0 0 1-2.689 1.596q-4.723 2.483-11.361 2.628a38.061 38.061 0 0 1-.834.009ZM1555.298 60.132v25.781a33.368 33.368 0 0 1-.311 4.66 25.501 25.501 0 0 1-.934 4.166 27.929 27.929 0 0 1-1.763 4.317 22.981 22.981 0 0 1-1.533 2.568 22.422 22.422 0 0 1-4.676 4.988 21.303 21.303 0 0 1-.085.065 27.781 27.781 0 0 1-5.676 3.406q-2.966 1.318-5.969 1.941a30.223 30.223 0 0 1-3.64.535 25.131 25.131 0 0 1-2.073.087h-34.351V93.604h34.351a11.669 11.669 0 0 0 2.169-.189q1.218-.231 2.163-.744a5.633 5.633 0 0 0 1.381-1.045 6.365 6.365 0 0 0 1.485-2.597q.301-.981.386-2.162a13.357 13.357 0 0 0 .033-.954V60.278a12.799 12.799 0 0 0-.171-2.167q-.405-2.353-1.77-3.692-1.652-1.621-4.604-1.862a13.169 13.169 0 0 0-1.072-.042h-34.204a12.367 12.367 0 0 0-2.237.189q-2.262.416-3.623 1.752a6.194 6.194 0 0 0-1.571 2.659q-.304.992-.381 2.19a13.006 13.006 0 0 0-.025.827v77.27h-19.043v-77.27a33.171 33.171 0 0 1 .311-4.651 25.024 25.024 0 0 1 .934-4.138 26.933 26.933 0 0 1 1.885-4.495 22.692 22.692 0 0 1 1.447-2.353 23.281 23.281 0 0 1 4.295-4.655 21.792 21.792 0 0 1 .503-.399 27.781 27.781 0 0 1 5.676-3.406q2.966-1.318 6.006-1.941a31.673 31.673 0 0 1 3.248-.499 24.795 24.795 0 0 1 2.428-.123h34.351a33.171 33.171 0 0 1 4.651.311 25.024 25.024 0 0 1 4.138.934 27.819 27.819 0 0 1 4.391 1.816 23.207 23.207 0 0 1 2.457 1.48 22.422 22.422 0 0 1 4.988 4.676 21.303 21.303 0 0 1 .066.084 27.781 27.781 0 0 1 3.405 5.677q1.319 2.966 1.941 5.969a30.223 30.223 0 0 1 .535 3.639 25.131 25.131 0 0 1 .088 2.074ZM1657.69 60.132v25.781a33.368 33.368 0 0 1-.311 4.66 25.501 25.501 0 0 1-.934 4.166 27.929 27.929 0 0 1-1.762 4.317 22.981 22.981 0 0 1-1.534 2.568 22.422 22.422 0 0 1-4.676 4.988 21.303 21.303 0 0 1-.084.065 27.781 27.781 0 0 1-5.677 3.406q-2.966 1.318-6.005 1.941a31.197 31.197 0 0 1-3.494.52 25.472 25.472 0 0 1-2.256.102h-34.351a26.238 26.238 0 0 1-4.341-.381 36.21 36.21 0 0 1-4.301-1.01 25.417 25.417 0 0 1-8.679-4.578 24.385 24.385 0 0 1-5.057-5.563 29.876 29.876 0 0 1-1.608-2.713 22.056 22.056 0 0 1-2.005-5.667q-.543-2.537-.645-5.454a39.188 39.188 0 0 1-.024-1.367V60.132a33.466 33.466 0 0 1 .441-5.582q.645-3.81 2.233-6.833a27.839 27.839 0 0 1 3.531-5.249 23.381 23.381 0 0 1 3.134-3.027 25.417 25.417 0 0 1 8.679-4.578q4.648-1.38 8.577-1.391a22.507 22.507 0 0 1 .065 0h34.351q7.324 0 12.451 2.636a27.108 27.108 0 0 1 5.127 3.382 22.478 22.478 0 0 1 3.15 3.247q3.149 3.992 4.577 8.679a35.003 35.003 0 0 1 1.06 4.455 25.994 25.994 0 0 1 .368 4.261Zm-19.043 25.781V60.278a12.567 12.567 0 0 0-.174-2.167q-.206-1.177-.657-2.1a5.597 5.597 0 0 0-1.146-1.592 6.365 6.365 0 0 0-2.597-1.486q-.981-.301-2.162-.385a13.357 13.357 0 0 0-.954-.033h-34.204a11.966 11.966 0 0 0-2.202.189q-1.251.235-2.229.76a5.918 5.918 0 0 0-1.355.992 6.194 6.194 0 0 0-1.572 2.659q-.304.992-.38 2.19a13.006 13.006 0 0 0-.026.827v25.781q0 2.769 1.087 4.572a5.95 5.95 0 0 0 .891 1.141q1.977 1.978 5.786 1.978h34.204q3.882 0 5.786-1.978a6.365 6.365 0 0 0 1.486-2.597q.301-.981.385-2.162a13.357 13.357 0 0 0 .033-.954ZM1723.682 112.646h-51.563V93.604h51.416a12.14 12.14 0 0 0 2.24-.194q1.236-.232 2.203-.744a5.882 5.882 0 0 0 1.417-1.04q1.757-1.757 1.953-4.903a13.05 13.05 0 0 0 .024-.81q-.366-7.617-7.69-7.617h-29.517a30.138 30.138 0 0 1-4.803-.363q-2.666-.43-4.888-1.372a17.593 17.593 0 0 1-1.002-.462 24.137 24.137 0 0 1-4.314-2.732 19.68 19.68 0 0 1-2.827-2.762 21.509 21.509 0 0 1-3.255-5.232 19.743 19.743 0 0 1-.701-1.872 27.424 27.424 0 0 1-.896-3.625 20.463 20.463 0 0 1-.312-3.48 29.7 29.7 0 0 1 .36-4.758q.426-2.617 1.352-4.79a16.937 16.937 0 0 1 .558-1.181 23.153 23.153 0 0 1 3.064-4.542 19.577 19.577 0 0 1 2.649-2.526 22.412 22.412 0 0 1 7.471-3.919q4.028-1.208 7.544-1.208h46.802v19.043h-46.655a10.609 10.609 0 0 0-.855.032q-.874.071-1.453.297a3.675 3.675 0 0 0-.564.275q-.427.259-.681.604a2.577 2.577 0 0 0-.373.711 2.31 2.31 0 0 0-.103.461 10.475 10.475 0 0 0-.072 1.061 9.486 9.486 0 0 0-.001.148q.048.765.221 1.312a2.812 2.812 0 0 0 .218.519 2.802 2.802 0 0 0 .342.491 2.042 2.042 0 0 0 .574.461 2.813 2.813 0 0 0 .906.295 3.439 3.439 0 0 0 .339.034 25.858 25.858 0 0 0 1.314.037 23.901 23.901 0 0 0 .041 0h29.517q7.324 0 12.451 2.637a27.108 27.108 0 0 1 5.126 3.381 22.478 22.478 0 0 1 3.15 3.247q3.15 3.992 4.578 8.679a35.003 35.003 0 0 1 1.06 4.455 25.994 25.994 0 0 1 .368 4.261 33.368 33.368 0 0 1-.311 4.66 25.501 25.501 0 0 1-.934 4.166 27.929 27.929 0 0 1-1.763 4.317 22.981 22.981 0 0 1-1.533 2.568 22.422 22.422 0 0 1-4.676 4.988 21.303 21.303 0 0 1-.085.065 27.781 27.781 0 0 1-5.676 3.406q-2.966 1.318-6.006 1.941a31.197 31.197 0 0 1-3.493.52 25.472 25.472 0 0 1-2.256.102ZM1783.081 33.472v79.174h-19.043V33.472h19.043Zm0-33.472v17.212h-19.043V0h19.043ZM1873.315 33.472v19.043h-33.252v60.131h-19.262V52.515h-24.756V33.472h24.756V7.617h19.262v25.855h33.252ZM1971.68 60.132v25.781a33.368 33.368 0 0 1-.312 4.66 25.501 25.501 0 0 1-.933 4.166 27.929 27.929 0 0 1-1.763 4.317 22.981 22.981 0 0 1-1.533 2.568 22.422 22.422 0 0 1-4.677 4.988 21.303 21.303 0 0 1-.084.065 27.781 27.781 0 0 1-5.676 3.406q-2.967 1.318-6.006 1.941a31.197 31.197 0 0 1-3.493.52 25.472 25.472 0 0 1-2.257.102h-34.35a26.238 26.238 0 0 1-4.341-.381 36.21 36.21 0 0 1-4.302-1.01 25.417 25.417 0 0 1-8.679-4.578 24.385 24.385 0 0 1-5.057-5.563 29.876 29.876 0 0 1-1.608-2.713 22.056 22.056 0 0 1-2.005-5.667q-.543-2.537-.645-5.454a39.188 39.188 0 0 1-.023-1.367V60.132a33.466 33.466 0 0 1 .441-5.582q.645-3.81 2.232-6.833a27.839 27.839 0 0 1 3.532-5.249 23.381 23.381 0 0 1 3.133-3.027 25.417 25.417 0 0 1 8.679-4.578q4.649-1.38 8.577-1.391a22.507 22.507 0 0 1 .066 0h34.35q7.325 0 12.451 2.636a27.108 27.108 0 0 1 5.127 3.382 22.478 22.478 0 0 1 3.15 3.247q3.149 3.992 4.577 8.679a35.003 35.003 0 0 1 1.06 4.455 25.994 25.994 0 0 1 .369 4.261Zm-19.043 25.781V60.278a12.567 12.567 0 0 0-.175-2.167q-.206-1.177-.657-2.1a5.597 5.597 0 0 0-1.146-1.592 6.365 6.365 0 0 0-2.597-1.486q-.981-.301-2.161-.385a13.357 13.357 0 0 0-.955-.033h-34.204a11.966 11.966 0 0 0-2.201.189q-1.252.235-2.23.76a5.918 5.918 0 0 0-1.355.992 6.194 6.194 0 0 0-1.571 2.659q-.305.992-.381 2.19a13.006 13.006 0 0 0-.025.827v25.781q0 2.769 1.086 4.572a5.95 5.95 0 0 0 .891 1.141q1.978 1.978 5.786 1.978h34.204q3.882 0 5.786-1.978a6.365 6.365 0 0 0 1.486-2.597q.301-.981.386-2.162a13.357 13.357 0 0 0 .033-.954ZM2057.153 33.472v19.043h-42.846a12.367 12.367 0 0 0-2.237.189q-2.262.416-3.623 1.752a6.194 6.194 0 0 0-1.571 2.659q-.304.992-.381 2.19a13.006 13.006 0 0 0-.025.827v52.514h-19.043V60.132a33.171 33.171 0 0 1 .311-4.651 25.024 25.024 0 0 1 .934-4.138 26.933 26.933 0 0 1 1.885-4.495 22.692 22.692 0 0 1 1.447-2.353 23.281 23.281 0 0 1 4.295-4.655 21.792 21.792 0 0 1 .503-.399 27.781 27.781 0 0 1 5.676-3.406q2.966-1.318 6.006-1.941a31.673 31.673 0 0 1 3.248-.499 24.795 24.795 0 0 1 2.428-.123h42.993ZM2156.982 33.472v86.792a33.368 33.368 0 0 1-.311 4.66 25.501 25.501 0 0 1-.934 4.165 27.929 27.929 0 0 1-1.762 4.318 22.981 22.981 0 0 1-1.534 2.567 22.422 22.422 0 0 1-4.676 4.988 21.303 21.303 0 0 1-.084.066 27.781 27.781 0 0 1-5.677 3.406q-2.966 1.318-5.969 1.941a30.223 30.223 0 0 1-3.639.535 25.131 25.131 0 0 1-2.074.087h-34.35v-19.043h34.35a11.669 11.669 0 0 0 2.17-.188q1.217-.231 2.163-.744a5.633 5.633 0 0 0 1.38-1.045 6.365 6.365 0 0 0 1.486-2.598q.301-.981.385-2.161a13.357 13.357 0 0 0 .033-.954V33.472h19.043Zm-26.66 60.132v19.042h-34.35q-4.102 0-8.753-1.391a25.787 25.787 0 0 1-8.427-4.38 29.247 29.247 0 0 1-.252-.198q-4.028-3.186-6.665-8.276-2.39-4.613-2.614-11.121a39.732 39.732 0 0 1-.023-1.367V33.472h19.043v52.441q0 2.769 1.087 4.572a5.95 5.95 0 0 0 .891 1.141q1.977 1.978 5.859 1.978h34.204Z" vector-effect="non-scaling-stroke"/></g></svg>